PathFileType	4	(X/Y/Z)	/home/abdul/Desktop/myosuite/custom_workspace/IK/output/S19_12_1.trc
DataRate	CameraRate	NumFrames	NumMarkers	Units	OrigDataRate	OrigDataStartFrame	OrigNumFrames
200.0	200.0	31	3	mm	200.0	1483	1694
Frame#	Time	V_Shoulder			V_Elbow			V_Wrist		
		X1	Y1	Z1	X2	Y2	Z2	X3	Y3	Z3

1483	7.41	-110.19356039092612	695.5948743200606	317.8942303388025				-191.2610345423812	333.6012457401183	30.400748119537695
1484	7.415	-110.2275502727876	695.6171446588514	317.8737530944918				-191.26782993089984	333.6028180085391	30.395598528008755
1485	7.42	-110.26083109508954	695.6394503139792	317.85380662237367				-191.27445560328232	333.60420203659794	30.390608689062276
1486	7.425	-110.2933832166127	695.6617608272618	317.83439458064163				-191.2809139830685	333.60539825493055	30.38577603094162
1487	7.43	-110.32518815332355	695.6840458116834	317.8155202784273				-191.28720759519013	333.60640735988704	30.381097787469507
1488	7.435	-110.35622858974955	695.7062750116371	317.7971866815421				-191.29333905612026	333.60723031984753	30.37657100343192
1489	7.44	-110.38648838877528	695.7284183621326	317.77939641827265				-191.2993110645118	333.60786838059073	30.372192540390728
1490	7.445	-110.41595259984375	695.7504460468552	317.7621517852255				-191.30512639232836	333.6083230696577	30.36795908291605
1491	7.45	-110.44460746554972	695.7723285549569	317.74545475321474				-191.31078787646624	333.60859619965834	30.363867145227232
1492	7.455	-110.4724404266148	695.7940367364739	317.7293069731895				-191.31629841086334	333.6086898704806	30.359913078229205
1493	7.46	-110.49944012523633	695.8155418562632	317.71370978219517				-191.32166093908714	333.6086064703669	30.356093076929124
1494	7.465	-110.52559640680607	695.8368156463567	317.698664209367				-191.32687844739064	333.6083486758349	30.352403188216176
1495	7.47	-110.55090031999634	695.8578303566397	317.68417098194936				-191.33195395822196	333.6079194504259	30.34883931898576
1496	7.475	-110.57534411521539	695.8785588037618	317.6702305313393				-191.3368905241717	333.60732204227696	30.345397244587637
1497	7.48	-110.59892124143589	695.8989744181966	317.6568429991498				-191.3416912223375	333.60655998051703	30.34207261757614
1498	7.485	-110.62162634140411	695.9190512893707	317.6440082432886				-191.34635914908597	333.6056370705003	30.33886097673914
1499	7.49	-110.64345524523993	695.9387642087898	317.63172584405214				-191.35089741518775	333.60455738789585	30.33575775638155
1500	7.495	-110.66440496244111	695.958088711093	317.6199951102277				-191.35530914130163	333.60332527166247	30.332758295837877
1501	7.5	-110.68447367230799	695.9770011129758	317.6088150852034				-191.35959745378182	333.60194531594414	30.329857849187707
1502	7.505	-110.70366071280849	695.9954785499264	317.5981845530805				-191.36376548078235	333.60042236092966	30.327051595147232
1503	7.51	-110.72196656790514	696.0134990107241	317.5881020447859				-191.36781634863098	333.59876148272724	30.324334647109488
1504	7.515	-110.73939285337013	696.031041369662	317.5785658441802				-191.37175317844685	333.5969679823095	30.321702063305743
1505	7.52	-110.75594230111635	696.0480854164516	317.5695739941575				-191.3755790829745	333.5950473735912	30.319148857060057
1506	7.525	-110.7716187420754	696.0646118837839	317.5611243027333				-191.3792971636093	333.5930053707078	30.316670007109348
1507	7.53	-110.78642708765693	696.0806024725202	317.55321434911633				-191.38291050758863	333.59084787456436	30.31426046796109
1508	7.535	-110.80037330982539	696.0960398744959	317.54584148975874				-191.38642218532544	333.5885809587319	30.311915180261302
1509	7.54	-110.81346441983375	696.1109077929219	317.53900286438034				-191.38983524786275	333.58621085476716	30.30962908114568
1510	7.545	-110.82570844565606	696.1251909603858	317.53269540196214				-191.39315272442798	333.5837439370373	30.30739711454732
1511	7.55	-110.83711440816263	696.1388751544405	317.5269158267029				-191.3963776200692	333.5811867071317	30.305214241434953
1512	7.555	-110.84769229608507	696.151947210799	317.52166066393374				-191.39951291335703	333.5785457779423	30.303075449956353
1513	7.56	-110.8574530398197	696.1643950341359	317.5169262459838				-191.40256155413908	333.5758278574968	30.300975765462212
